<svg width="72" height="72" viewBox="0 0 72 72" fill="none" xmlns="http://www.w3.org/2000/svg">
<path d="M35.553 70.5613C54.6429 70.5613 70.2168 55.0862 70.3381 35.9967C70.4595 16.9071 55.0825 1.43201 35.9925 1.43201C16.9026 1.43201 1.32879 16.9071 1.20742 35.9967C1.08605 55.0862 16.4631 70.5613 35.553 70.5613Z" fill="url(#paint0_linear_1232_3)"/>
<path d="M35.7719 72C16.0579 72 0 55.8397 0 36C0 16.1603 16.0579 0 35.7719 0C55.4859 0 71.5437 16.1603 71.5437 36C71.5437 55.8397 55.4859 72 35.7719 72ZM35.7719 2.64922C17.4911 2.64922 2.63243 17.6026 2.63243 36C2.63243 54.3974 17.4911 69.3508 35.7719 69.3508C54.0527 69.3508 68.9113 54.3974 68.9113 36C68.9113 17.6026 54.0527 2.64922 35.7719 2.64922Z" fill="#03272B"/>
<path d="M66.8346 35.7056C66.8931 38.2077 66.6298 40.7391 66.1033 43.0646C63.4416 54.5151 53.9649 63.6991 42.5869 66.2306C41.6509 66.4366 40.715 66.6132 39.779 66.731C30.6532 67.8495 21.352 64.6999 14.6831 58.3123C7.07831 51.0417 1.5502 37.3246 6.78582 27.2575C9.506 22.0474 14.5954 18.2796 20.5622 18.2796C23.6626 18.2796 26.5291 19.1921 28.9568 20.7228C33.3149 23.4897 38.8723 23.4897 43.2012 20.7228C45.6288 19.1627 48.4953 18.2796 51.5957 18.2796C53.2336 18.2796 54.8131 18.5445 56.2756 18.9861C63.6756 21.3409 66.6591 28.4938 66.8346 35.7056Z" fill="url(#paint1_linear_1232_3)"/>
<path d="M36.1228 68.2911C27.933 68.2911 19.7725 65.0531 13.7471 59.2837C5.46961 51.3949 0.175488 37.0302 5.5866 26.6394C8.71627 20.6639 14.4199 16.955 20.533 16.955C23.7796 16.955 26.9093 17.8675 29.6295 19.6042C33.5197 22.1063 38.5798 22.1063 42.4699 19.6042C45.1901 17.8675 48.3198 16.955 51.5665 16.955C53.2922 16.955 55.0179 17.2199 56.6558 17.7203C63.7341 19.9575 67.9168 26.4922 68.1508 35.6468C68.2093 38.2077 67.946 40.8569 67.3611 43.3589C64.6409 55.1627 54.7839 64.8765 42.8502 67.5257C41.8849 67.7318 40.8905 67.9084 39.896 68.0262C38.6675 68.2028 37.3806 68.2911 36.1228 68.2911ZM20.533 19.6042C15.4144 19.6042 10.5882 22.7833 7.92654 27.8757C3.10042 37.148 8.01429 50.1586 15.5606 57.3704C21.9662 63.493 30.9457 66.4955 39.6035 65.4358C40.5102 65.3181 41.417 65.1709 42.2944 64.9648C53.2629 62.5217 62.3009 53.6026 64.8164 42.7702C65.3429 40.5037 65.5769 38.0605 65.5184 35.7351C65.4306 31.9673 64.2899 22.9011 55.8661 20.2518C54.4914 19.8103 53.0289 19.6042 51.5665 19.6042C48.8463 19.6042 46.1846 20.3696 43.8739 21.8414C39.1063 24.8733 32.9639 24.8733 28.2255 21.8414C25.9148 20.399 23.2824 19.6042 20.533 19.6042Z" fill="#03272B"/>
<path d="M57.1823 51.866C56.1586 52.5135 54.9594 52.9845 53.8186 53.3377C52.6194 53.7204 51.3909 53.9559 50.1332 54.0442C47.5885 54.2208 45.0439 53.7499 42.7039 52.7785C40.364 51.7777 38.5505 50.2764 35.8596 50.3059C33.2857 50.3353 31.5599 51.8071 29.2785 52.7785C26.9386 53.7793 24.3939 54.2503 21.8492 54.0442C20.5915 53.9559 19.363 53.7204 18.1638 53.3377C16.9938 52.9845 15.8238 52.5135 14.8001 51.866C12.9282 50.6885 11.4657 48.9812 10.0325 47.3034C11.6704 50.8357 13.9519 54.0442 16.4673 56.4579C21.3812 61.1677 27.9038 63.9346 34.6019 64.2879C34.9821 64.3173 35.3331 64.3173 35.7133 64.3173C35.8011 64.3173 35.8596 64.3173 35.9473 64.3173C36.0351 64.3173 36.0936 64.3173 36.1813 64.3173C36.5616 64.3173 36.9126 64.3173 37.2928 64.2879C43.9909 63.9346 50.5135 61.1677 55.4274 56.4579C57.972 54.0442 60.2242 50.8357 61.8622 47.3034C60.5167 48.9812 59.0543 50.6885 57.1823 51.866Z" fill="#2C6B74"/>
<g opacity="0.4">
<path d="M12.3432 17.8381C13.5132 17.1022 14.8001 16.6018 16.1163 16.1897C17.4618 15.7776 18.8365 15.5127 20.2405 15.3949C23.0777 15.1889 25.9149 15.7187 28.518 16.8079C31.1212 17.9264 33.1687 19.6043 36.1521 19.5454C39.0478 19.516 40.9782 17.8676 43.4937 16.8079C46.0969 15.6893 48.9633 15.1889 51.7712 15.3949C53.1752 15.5127 54.5499 15.7776 55.8954 16.1897C57.1823 16.6018 58.4985 17.1022 59.6685 17.8381C61.7452 19.1627 63.3832 21.0761 64.9919 22.9305C63.1492 18.9861 60.6045 15.3949 57.7966 12.6869C52.2977 7.41784 45.0146 4.32708 37.5268 3.94441C37.1173 3.91498 36.7078 3.91498 36.2983 3.91498C36.2106 3.91498 36.1229 3.91498 36.0351 3.91498C35.9474 3.91498 35.8596 3.91498 35.7719 3.91498C35.3624 3.91498 34.9529 3.91498 34.5434 3.94441C27.0556 4.32708 19.7725 7.41784 14.2736 12.6869C11.4072 15.3949 8.86253 18.9861 7.01982 22.9305C8.62853 21.0761 10.2665 19.1333 12.3432 17.8381Z" fill="#2C6B74"/>
</g>
<path d="M49.0803 24.8732C46.4186 24.726 43.9031 25.403 41.7972 26.6982C38.0533 28.9353 33.4612 28.9353 29.7172 26.6982C27.6113 25.4325 25.0959 24.7554 22.4342 24.8732C15.7946 25.197 10.442 30.672 10.1787 37.3834C9.88624 44.8012 15.7946 50.9239 23.1069 50.9239C25.5346 50.9239 27.7868 50.2469 29.7172 49.0989C33.4612 46.8617 38.0533 46.8617 41.7972 49.0989C43.7276 50.2469 46.0091 50.9239 48.4075 50.9239C55.7199 50.9239 61.6282 44.8307 61.3357 37.3834C61.1017 30.672 55.7199 25.197 49.0803 24.8732Z" fill="white"/>
<path d="M48.4075 52.2191C45.8336 52.2191 43.3181 51.5127 41.1244 50.2175C37.8193 48.2453 33.6951 48.2453 30.39 50.2175C28.1963 51.5421 25.6808 52.2485 23.1069 52.2485C19.1875 52.2485 15.5606 50.6885 12.8404 47.8626C10.1202 45.0368 8.71625 41.2984 8.8625 37.354C9.15499 29.9951 15.0633 23.9607 22.3757 23.5781C25.2128 23.4309 27.9915 24.1373 30.4192 25.5797C33.7244 27.5519 37.8193 27.5519 41.1244 25.5797C43.5521 24.1373 46.3308 23.4309 49.168 23.5781C56.4511 23.9607 62.3887 29.9951 62.6812 37.354C62.8274 41.2984 61.4234 45.0368 58.7033 47.8626C55.9831 50.659 52.3269 52.2191 48.4075 52.2191ZM35.7718 46.067C38.0825 46.067 40.4225 46.6852 42.4699 47.9215C44.2541 48.9812 46.3016 49.5699 48.4075 49.5699C51.5957 49.5699 54.5791 48.3041 56.7728 45.9787C58.9957 43.6533 60.1365 40.6214 60.0195 37.4129C59.8147 31.4374 54.9886 26.4922 49.0217 26.1979C46.7111 26.0801 44.4296 26.6394 42.4699 27.8168C38.3458 30.2894 33.1979 30.2894 29.0445 27.8168C27.0848 26.6394 24.8034 26.0801 22.4927 26.1979C16.5551 26.4922 11.6997 31.4374 11.4949 37.4129C11.3779 40.6214 12.5187 43.6827 14.7416 45.9787C16.9645 48.3041 19.9187 49.5699 23.1069 49.5699C25.2128 49.5699 27.2603 49.0106 29.0445 47.9215C31.1212 46.6852 33.4611 46.067 35.7718 46.067Z" fill="#03272B"/>
<path d="M17.4033 35.4702C17.4033 35.4702 23.5457 35.7939 25.2421 35.7939C26.9386 35.7939 28.2841 37.1774 28.2841 38.8553C28.2841 40.5331 26.9093 41.9166 25.2421 41.9166C18.8365 41.9166 17.4033 37.148 17.4033 35.4702Z" fill="#00E0FF"/>
<path d="M25.2421 43.2412C17.7836 43.2412 16.0871 37.4718 16.0871 35.4702V34.0867L17.4618 34.1455C17.5203 34.1455 23.6042 34.4693 25.2129 34.4693C27.6113 34.4693 29.571 36.4415 29.571 38.8553C29.571 41.269 27.6406 43.2412 25.2421 43.2412ZM19.012 36.8831C19.5385 38.4137 21.0595 40.592 25.2129 40.592C26.1781 40.592 26.9386 39.8266 26.9386 38.8553C26.9386 37.8839 26.1781 37.1186 25.2129 37.1186C24.0721 37.1186 20.9717 36.9714 19.012 36.8831Z" fill="#03272B"/>
<path d="M54.1404 35.4702C54.1404 35.4702 47.998 35.7939 46.3016 35.7939C44.6344 35.7939 43.2596 37.1774 43.2596 38.8553C43.2596 40.5331 44.6344 41.9166 46.3016 41.9166C52.7072 41.9166 54.1404 37.148 54.1404 35.4702Z" fill="#00E0FF"/>
<path d="M46.3016 43.2412C43.9032 43.2412 41.9435 41.269 41.9435 38.8553C41.9435 36.4415 43.9032 34.4693 46.3016 34.4693C47.9396 34.4693 53.9942 34.1455 54.0527 34.1455L55.4274 34.0867V35.4702C55.4566 37.4718 53.7602 43.2412 46.3016 43.2412ZM52.5317 36.8831C50.572 36.9714 47.4716 37.1186 46.3308 37.1186C45.3656 37.1186 44.6051 37.8839 44.6051 38.8553C44.6051 39.8266 45.3656 40.592 46.3308 40.592C50.4842 40.592 51.976 38.3843 52.5317 36.8831Z" fill="#03272B"/>
<defs>
<linearGradient id="paint0_linear_1232_3" x1="35.9925" y1="1.43201" x2="35.9925" y2="70.5613" gradientUnits="userSpaceOnUse">
<stop stop-color="#00BED8"/>
<stop offset="1" stop-color="#008294"/>
</linearGradient>
<linearGradient id="paint1_linear_1232_3" x1="35.7852" y1="18.2796" x2="35.7852" y2="66.9532" gradientUnits="userSpaceOnUse">
<stop stop-color="#00BED8"/>
<stop offset="1" stop-color="#008294"/>
</linearGradient>
</defs>
</svg>
